<svg id="Layer_1" data-name="Layer 1" xmlns="http://www.w3.org/2000/svg" viewBox="0 0 241.77 113.03"><defs><style>.cls-1{fill:#74488a;stroke:#392265;stroke-miterlimit:10;stroke-width:3px;}</style></defs><path class="cls-1" d="M267.44,254.8a39.16,39.16,0,0,1-4.88,19.79,40.31,40.31,0,0,1-12.66,13.7,52.74,52.74,0,0,1-15.09,6.92,68.26,68.26,0,0,1-18.7,2.37q-3.95,0-7.73-.13l-4.17-.13q0-.31.14-14.76t.14-27.38q0-6.85,0-17.61t-.25-26.13l5.16-.07,4.93-.06A82.07,82.07,0,0,1,235,213.68a48.31,48.31,0,0,1,16.16,7.49,37.74,37.74,0,0,1,12.24,14.32A44.19,44.19,0,0,1,267.44,254.8Zm-9.6-.07a35.3,35.3,0,0,0-3.16-15.11,29.63,29.63,0,0,0-10-11.66,39.41,39.41,0,0,0-14.12-6.34,63.29,63.29,0,0,0-14.07-1.79h-2.93q-.12,10.13-.14,16.78t0,10.63q0,2.82,0,13.16t.08,28.66h2.88a57.42,57.42,0,0,0,14.71-1.95,40.41,40.41,0,0,0,12.47-5.41,33.93,33.93,0,0,0,10.34-11.05A31,31,0,0,0,257.84,254.73Z" transform="translate(-202.69 -209.17)"/><path class="cls-1" d="M372.73,260.43q0,15.26-9.66,25.65t-25.74,10.41a73.63,73.63,0,0,1-10.62-.86,29,29,0,0,1-9-2.53,18.56,18.56,0,0,1-6.3-5.51,16.32,16.32,0,0,1,.43-18.19,22,22,0,0,1,7.84-6,37.11,37.11,0,0,1,10.05-3q5.65-.93,10-1.32a13.85,13.85,0,0,0-1.9-6.56,10.69,10.69,0,0,0-4.54-3.94,16,16,0,0,0-4.57-1.41,41.76,41.76,0,0,0-6.1-.38c-1.32,0-2.55,0-3.7.13s-2.6.17-4.37.25l.79-8c.41-.05,1.4-.12,3-.23s3.59-.16,6.07-.16a34.63,34.63,0,0,1,10.22,1.35,17.13,17.13,0,0,1,7.39,4.48,17.92,17.92,0,0,1,4.29,7.56A42.29,42.29,0,0,1,347.66,264v24.85q7.68-1.55,12.79-9.52t5.11-19.05q0-16.45-10.31-26.67t-27.18-10.22q-17,0-27.44,12.3t-10.44,29.78q0,20.29,12.53,33.11t32,14.54l-.68,7.49q-23-2-37.2-17.1t-14.17-38.62q0-21.26,13.13-35.29a42.25,42.25,0,0,1,32.09-14q19.82,0,32.32,12.1T372.73,260.43Zm-32.92,16.66V272.6q0-2.62-.05-6.27a61.61,61.61,0,0,0-7.51.92,36.14,36.14,0,0,0-8.3,2.41,14.48,14.48,0,0,0-4.41,3.17,7.55,7.55,0,0,0-2.2,5.54,9.4,9.4,0,0,0,1.7,5.86,10.07,10.07,0,0,0,4.57,3.29,29.52,29.52,0,0,0,5.45,1.51,32.34,32.34,0,0,0,5.61.48l2.71,0c1.13,0,1.92-.05,2.38-.1,0-.68,0-2.1,0-4.26S339.81,280.29,339.81,277.09Z" transform="translate(-202.69 -209.17)"/><path class="cls-1" d="M442.79,289.32c0,.38-.15,1.46-.31,3.23s-.33,3.71-.48,5.8h-2a70.71,70.71,0,0,1-24.5-3.94A44.25,44.25,0,0,1,397.9,283a38.56,38.56,0,0,1-7.59-12.43A45.66,45.66,0,0,1,387.52,254a40.53,40.53,0,0,1,2.76-15.21,42.18,42.18,0,0,1,7.23-12A44.58,44.58,0,0,1,415,215a62.88,62.88,0,0,1,23.43-4.35h2.54c0,.77.12,2,.23,3.68s.24,3.51.39,5.48h-1.92A64.82,64.82,0,0,0,425,221.59a41.41,41.41,0,0,0-13.06,5.28,31.81,31.81,0,0,0-11,11.82,32.4,32.4,0,0,0-3.85,15.53,35.38,35.38,0,0,0,3.45,15.72,29.49,29.49,0,0,0,10.91,11.88,43.14,43.14,0,0,0,13.65,5.77,65.06,65.06,0,0,0,15,1.79h1.07Q441.94,289.38,442.79,289.32Z" transform="translate(-202.69 -209.17)"/></svg>